<svg width="20" height="20" viewBox="0 0 20 20" fill="none" xmlns="http://www.w3.org/2000/svg">
<path fill-rule="evenodd" clip-rule="evenodd" d="M14.6354 3.47899C13.6715 2.79256 12.5489 2.31452 11.3333 2.11059V0H8.66664V2.11061C7.45112 2.31455 6.32855 2.79258 5.36466 3.47899L3.87178 1.98612L1.98616 3.87174L3.47904 5.36461C2.79262 6.32852 2.31457 7.45112 2.11064 8.66666H0V11.3333H2.11065C2.31458 12.5489 2.79262 13.6715 3.47904 14.6354L1.98614 16.1283L3.87176 18.0139L5.36466 16.521C6.32855 17.2074 7.45112 17.6854 8.66664 17.8894V20H11.3333V17.8894C12.5489 17.6855 13.6715 17.2074 14.6354 16.521L16.1283 18.0139L18.0139 16.1283L16.521 14.6354C17.2074 13.6715 17.6855 12.5489 17.8894 11.3333H20V8.66667H17.8894C17.6855 7.45112 17.2075 6.32852 16.521 5.36461L18.0139 3.87175L16.1283 1.98613L14.6354 3.47899ZM10 13C11.6569 13 13 11.6569 13 10C13 8.34315 11.6569 7 10 7C8.34315 7 7 8.34315 7 10C7 11.6569 8.34315 13 10 13Z" fill="#C4C4C4"/>
</svg>
